<?xml version="1.0" standalone="no"?><!DOCTYPE svg PUBLIC "-//W3C//DTD SVG 1.1//EN" "http://www.w3.org/Graphics/SVG/1.1/DTD/svg11.dtd"><svg t="1582732399593" class="icon" viewBox="0 0 1024 1024" version="1.1" xmlns="http://www.w3.org/2000/svg" p-id="3075" xmlns:xlink="http://www.w3.org/1999/xlink" width="32" height="32"><defs><style type="text/css"></style></defs><path d="M601.12044 125.642842a15.317011 15.317011 0 1 1-15.317011-15.244761 15.317011 15.317011 0 0 1 15.317011 15.244761z" fill="#5FB0E5" p-id="3076"></path><path d="M213.715657 779.794821m-15.317012 0a15.317011 15.317011 0 1 0 30.634023 0 15.317011 15.317011 0 1 0-30.634023 0Z" fill="#5FB0E5" p-id="3077"></path><path d="M833.837861 298.464969a24.998518 24.998518 0 1 1-24.637268-24.998519 24.998518 24.998518 0 0 1 24.637268 24.998519z" fill="#5FB0E5" p-id="3078"></path><path d="M375.266775 848.143371m-24.998518 0a24.998518 24.998518 0 1 0 49.997036 0 24.998518 24.998518 0 1 0-49.997036 0Z" fill="#5FB0E5" p-id="3079"></path><path d="M822.783603 75.356805A38.942779 38.942779 0 1 1 783.840824 36.125026a38.942779 38.942779 0 0 1 38.942779 39.231779zM102.233825 848.143371A38.942779 38.942779 0 1 1 63.291046 809.200593a38.942779 38.942779 0 0 1 38.942779 38.942778z" fill="#5FB0E5" p-id="3080"></path><path d="M553.38483 628.192535l25.135794-25.143018 86.793988 86.808438-25.135793 25.135794z" fill="#0686D8" p-id="3081"></path><path d="M157.649615 207.213152a296.225217 296.225217 0 1 0 419.050307 0 296.225217 296.225217 0 0 0-419.050307 0z m368.47527 368.47527a225.131165 225.131165 0 1 1 0-318.333734 225.131165 225.131165 0 0 1 0.216751 318.550484z" fill="#D2E9F7" p-id="3082"></path><path d="M367.174769 730.881535a314.07098 314.07098 0 0 1-222.096663-536.239892A311.758978 311.758978 0 0 1 308.001976 108.375079l6.647004 34.896776a278.596204 278.596204 0 1 0 249.479433 76.512806l25.143019-25.143018a314.14323 314.14323 0 0 1-222.096663 536.239892z" fill="#0686D8" p-id="3083"></path><path d="M514.998377 180.625132a278.234954 278.234954 0 0 0-140.165102-42.266281l0.867-35.619276a313.131729 313.131729 0 0 1 158.083116 47.685035z" fill="#0686D8" p-id="3084"></path><path d="M488.988358 315.877231a185.971636 185.971636 0 0 0-262.701192 0l-25.143019-25.143018a221.374162 221.374162 0 0 1 312.98723 0z" fill="#0686D8" p-id="3085"></path><path d="M585.803429 718.165526l253.308686 253.308686a34.246525 34.246525 0 0 0 48.407535 0l34.391025-34.391026a34.246525 34.246525 0 0 0 0-48.407535L668.60199 635.366965z" fill="#5FB0E5" p-id="3086"></path><path d="M863.315882 999.218232a51.875538 51.875538 0 0 1-36.775277-15.172511L560.660411 718.165526l107.941579-107.941579 265.880194 265.880195a51.947788 51.947788 0 0 1 0 73.550554l-34.391025 34.391025a51.875538 51.875538 0 0 1-36.775277 15.172511zM610.946447 718.165526l240.737177 240.737176a16.473012 16.473012 0 0 0 23.264517 0l34.391025-34.391025a16.545262 16.545262 0 0 0 0-23.264517L668.60199 660.509984z" fill="#0686D8" p-id="3087"></path><path d="M630.786312 767.237762L717.587526 680.436548l25.135793 25.135794-86.801214 86.801213z" fill="#0686D8" p-id="3088"></path><path d="M674.273619 810.660044l86.801213-86.801214 25.143019 25.135794-86.808439 86.801213z" fill="#0686D8" p-id="3089"></path></svg>